REM DIRINDEX 1\4,1\2\5,1\2\6,1\2\7,1\3\8,1\3\9,1\3\10,1\3\11
REM DIRNAME cjc108,folder01,folder02,folder03,folder04,folder05,folder06,folder07,folder08,folder09,folder10
TITLE ""
FILE "t_k_381-393.mp3" MP3
  TRACK 01 AUDIO
    TITLE "5:cjc108_1145"
    INDEX 01 00:00:00
  TRACK 02 AUDIO
    TITLE "0:"
    INDEX 01 00:01:03
  TRACK 03 AUDIO
    TITLE "6:cjc108_1146"
    INDEX 01 00:01:13
  TRACK 04 AUDIO
    TITLE "0:"
    INDEX 01 00:03:19
  TRACK 05 AUDIO
    TITLE "7:cjc108_1147"
    INDEX 01 00:03:37
  TRACK 06 AUDIO
    TITLE "0:"
    INDEX 01 00:09:04
  TRACK 07 AUDIO
    TITLE "5:cjc108_1148"
    INDEX 01 00:09:61
  TRACK 08 AUDIO
    TITLE "0:"
    INDEX 01 00:11:33
  TRACK 09 AUDIO
    TITLE "6:cjc108_1149"
    INDEX 01 00:11:48
  TRACK 10 AUDIO
    TITLE "0:"
    INDEX 01 00:13:59
  TRACK 11 AUDIO
    TITLE "7:cjc108_1150"
    INDEX 01 00:14:04
  TRACK 12 AUDIO
    TITLE "0:"
    INDEX 01 00:18:72
  TRACK 13 AUDIO
    TITLE "5:cjc108_1151"
    INDEX 01 00:19:56
  TRACK 14 AUDIO
    TITLE "0:"
    INDEX 01 00:21:02
  TRACK 15 AUDIO
    TITLE "6:cjc108_1152"
    INDEX 01 00:21:21
  TRACK 16 AUDIO
    TITLE "0:"
    INDEX 01 00:23:30
  TRACK 17 AUDIO
    TITLE "7:cjc108_1153"
    INDEX 01 00:23:44
  TRACK 18 AUDIO
    TITLE "0:"
    INDEX 01 00:31:06
  TRACK 19 AUDIO
    TITLE "5:cjc108_1154"
    INDEX 01 00:31:69
  TRACK 20 AUDIO
    TITLE "0:"
    INDEX 01 00:33:07
  TRACK 21 AUDIO
    TITLE "6:cjc108_1155"
    INDEX 01 00:33:09
  TRACK 22 AUDIO
    TITLE "0:"
    INDEX 01 00:34:20
  TRACK 23 AUDIO
    TITLE "7:cjc108_1156"
    INDEX 01 00:34:34
  TRACK 24 AUDIO
    TITLE "0:"
    INDEX 01 00:39:09
  TRACK 25 AUDIO
    TITLE "5:cjc108_1157"
    INDEX 01 00:39:64
  TRACK 26 AUDIO
    TITLE "0:"
    INDEX 01 00:41:14
  TRACK 27 AUDIO
    TITLE "6:cjc108_1158"
    INDEX 01 00:41:26
  TRACK 28 AUDIO
    TITLE "0:"
    INDEX 01 00:43:21
  TRACK 29 AUDIO
    TITLE "7:cjc108_1159"
    INDEX 01 00:43:35
  TRACK 30 AUDIO
    TITLE "0:"
    INDEX 01 00:47:72
  TRACK 31 AUDIO
    TITLE "5:cjc108_1160"
    INDEX 01 00:48:63
  TRACK 32 AUDIO
    TITLE "0:"
    INDEX 01 00:50:07
  TRACK 33 AUDIO
    TITLE "6:cjc108_1161"
    INDEX 01 00:50:21
  TRACK 34 AUDIO
    TITLE "0:"
    INDEX 01 00:54:36
  TRACK 35 AUDIO
    TITLE "7:cjc108_1162"
    INDEX 01 00:54:54
  TRACK 36 AUDIO
    TITLE "0:"
    INDEX 01 00:59:39
  TRACK 37 AUDIO
    TITLE "5:cjc108_1163"
    INDEX 01 01:00:29
  TRACK 38 AUDIO
    TITLE "0:"
    INDEX 01 01:01:48
  TRACK 39 AUDIO
    TITLE "6:cjc108_1164"
    INDEX 01 01:01:70
  TRACK 40 AUDIO
    TITLE "0:"
    INDEX 01 01:03:65
  TRACK 41 AUDIO
    TITLE "7:cjc108_1165"
    INDEX 01 01:04:21
  TRACK 42 AUDIO
    TITLE "0:"
    INDEX 01 01:09:24
  TRACK 43 AUDIO
    TITLE "5:cjc108_1166"
    INDEX 01 01:10:16
  TRACK 44 AUDIO
    TITLE "0:"
    INDEX 01 01:11:52
  TRACK 45 AUDIO
    TITLE "6:cjc108_1167"
    INDEX 01 01:11:62
  TRACK 46 AUDIO
    TITLE "0:"
    INDEX 01 01:14:57
  TRACK 47 AUDIO
    TITLE "7:cjc108_1168"
    INDEX 01 01:14:72
  TRACK 48 AUDIO
    TITLE "0:"
    INDEX 01 01:20:57
  TRACK 49 AUDIO
    TITLE "5:cjc108_1169"
    INDEX 01 01:21:39
  TRACK 50 AUDIO
    TITLE "0:"
    INDEX 01 01:23:03
  TRACK 51 AUDIO
    TITLE "6:cjc108_1170"
    INDEX 01 01:23:20
  TRACK 52 AUDIO
    TITLE "0:"
    INDEX 01 01:25:47
  TRACK 53 AUDIO
    TITLE "7:cjc108_1171"
    INDEX 01 01:25:58
  TRACK 54 AUDIO
    TITLE "0:"
    INDEX 01 01:30:32
  TRACK 55 AUDIO
    TITLE "5:cjc108_1172"
    INDEX 01 01:31:08
  TRACK 56 AUDIO
    TITLE "0:"
    INDEX 01 01:32:21
  TRACK 57 AUDIO
    TITLE "6:cjc108_1173"
    INDEX 01 01:32:33
  TRACK 58 AUDIO
    TITLE "0:"
    INDEX 01 01:33:46
  TRACK 59 AUDIO
    TITLE "7:cjc108_1174"
    INDEX 01 01:33:56
  TRACK 60 AUDIO
    TITLE "0:"
    INDEX 01 01:38:59
  TRACK 61 AUDIO
    TITLE "5:cjc108_1175"
    INDEX 01 01:39:27
  TRACK 62 AUDIO
    TITLE "0:"
    INDEX 01 01:40:40
  TRACK 63 AUDIO
    TITLE "6:cjc108_1176"
    INDEX 01 01:40:44
  TRACK 64 AUDIO
    TITLE "0:"
    INDEX 01 01:42:63
  TRACK 65 AUDIO
    TITLE "7:cjc108_1177"
    INDEX 01 01:43:07
  TRACK 66 AUDIO
    TITLE "0:"
    INDEX 01 01:47:54
  TRACK 67 AUDIO
    TITLE "5:cjc108_1178"
    INDEX 01 01:48:36
  TRACK 68 AUDIO
    TITLE "0:"
    INDEX 01 01:49:63
  TRACK 69 AUDIO
    TITLE "6:cjc108_1179"
    INDEX 01 01:49:71
  TRACK 70 AUDIO
    TITLE "0:"
    INDEX 01 01:52:69
  TRACK 71 AUDIO
    TITLE "7:cjc108_1180"
    INDEX 01 01:53:04
  TRACK 72 AUDIO
    TITLE "0:"
    INDEX 01 01:58:66
  TRACK 73 AUDIO
    TITLE "5:cjc108_1181"
    INDEX 01 01:59:44
  TRACK 74 AUDIO
    TITLE "0:"
    INDEX 01 02:00:57
  TRACK 75 AUDIO
    TITLE "6:cjc108_1182"
    INDEX 01 02:00:72
  TRACK 76 AUDIO
    TITLE "0:"
    INDEX 01 02:04:02
  TRACK 77 AUDIO
    TITLE "7:cjc108_1183"
    INDEX 01 02:04:21
  TRACK 78 AUDIO
    TITLE "0:"
    INDEX 01 02:11:08
